<?xml version="1.0" encoding="UTF-8" standalone="no"?>
<!-- Created with Inkscape (http://www.inkscape.org/) -->

<svg
   width="210mm"
   height="210mm"
   viewBox="0 0 210 210"
   version="1.1"
   id="svg1"
   inkscape:version="1.4.2 (f4327f4, 2025-05-13)"
   sodipodi:docname="pack_icon.svg"
   xmlns:inkscape="http://www.inkscape.org/namespaces/inkscape"
   xmlns:sodipodi="http://sodipodi.sourceforge.net/DTD/sodipodi-0.dtd"
   xmlns="http://www.w3.org/2000/svg"
   xmlns:svg="http://www.w3.org/2000/svg">
  <sodipodi:namedview
     id="namedview1"
     pagecolor="#ffffff"
     bordercolor="#000000"
     borderopacity="0.25"
     inkscape:showpageshadow="2"
     inkscape:pageopacity="0.0"
     inkscape:pagecheckerboard="0"
     inkscape:deskcolor="#d1d1d1"
     inkscape:document-units="mm"
     inkscape:zoom="0.50835204"
     inkscape:cx="-103.27489"
     inkscape:cy="199.66478"
     inkscape:window-width="1920"
     inkscape:window-height="1009"
     inkscape:window-x="-8"
     inkscape:window-y="-8"
     inkscape:window-maximized="1"
     inkscape:current-layer="layer1" />
  <defs
     id="defs1" />
  <g
     inkscape:label="Layer 1"
     inkscape:groupmode="layer"
     id="layer1">
    <rect
       style="display:inline;fill:#170e2b;fill-opacity:1;stroke-width:0.264583"
       id="rect1"
       width="210"
       height="210"
       x="0"
       y="0" />
    <path
       id="path1"
       style="fill:#cbcd66;fill-opacity:1;stroke-width:0.264583"
       d="m 119.40876,45.379093 c -31.809819,9.8e-5 -57.596668,26.693431 -57.596483,59.621167 9.1e-5,32.92753 25.78686,59.62055 57.596483,59.62065 9.91196,-0.0126 20.59819,-1.3263 28.28096,-7.72356 2.84793,-2.3714 -7.28598,1.32117 -10.9833,1.35548 C 108.55539,158.25281 92.358984,134.41061 92.358866,105 92.358714,75.589193 108.5552,51.747195 136.70642,51.747179 c 3.69732,0.0343 13.83123,3.726872 10.9833,1.355473 -7.68277,-6.397257 -18.369,-7.710925 -28.28096,-7.723559 z"
       sodipodi:nodetypes="cccscccsc" />
    <path
       sodipodi:type="star"
       style="fill:#cbcd66;fill-opacity:1;stroke-width:0.264583"
       id="path2"
       inkscape:flatsided="false"
       sodipodi:sides="5"
       sodipodi:cx="38.514976"
       sodipodi:cy="28.365759"
       sodipodi:r1="10.982466"
       sodipodi:r2="5.491233"
       sodipodi:arg1="0.63402272"
       sodipodi:arg2="1.2623413"
       inkscape:rounded="0.15"
       inkscape:randomized="0"
       d="m 47.363011,34.871667 c -0.648052,0.881351 -6.138637,-1.605953 -7.180968,-1.273841 -1.04233,0.332113 -4.081886,5.537332 -5.120359,5.19335 -1.038474,-0.343982 -0.369592,-6.334458 -1.007547,-7.223145 -0.637956,-0.888687 -6.527688,-2.170974 -6.521448,-3.264918 0.0062,-1.093944 5.910218,-2.308957 6.55827,-3.190308 0.648053,-0.881351 0.04755,-6.879068 1.089884,-7.21118 1.04233,-0.332113 4.022306,4.907444 5.06078,5.251425 1.038474,0.343982 6.557077,-2.080523 7.195033,-1.191836 0.637955,0.888687 -3.424296,5.341924 -3.430536,6.435868 -0.0062,1.093944 4.004944,5.593234 3.356891,6.474585 z"
       inkscape:transform-center-x="0.99631807"
       inkscape:transform-center-y="-0.018768607" />
    <path
       sodipodi:type="star"
       style="fill:#cbcd66;fill-opacity:1;stroke-width:0.264583"
       id="path2-1"
       inkscape:flatsided="false"
       sodipodi:sides="5"
       sodipodi:cx="38.514977"
       sodipodi:cy="28.365759"
       sodipodi:r1="10.982466"
       sodipodi:r2="5.4912329"
       sodipodi:arg1="0.63402272"
       sodipodi:arg2="1.2623413"
       inkscape:rounded="0.15"
       inkscape:randomized="0"
       d="m 47.363011,34.871667 c -0.648052,0.881351 -6.138637,-1.605953 -7.180968,-1.273841 -1.04233,0.332113 -4.081886,5.537332 -5.120359,5.19335 -1.038474,-0.343982 -0.369592,-6.334458 -1.007547,-7.223145 -0.637956,-0.888687 -6.527688,-2.170974 -6.521448,-3.264918 0.0062,-1.093944 5.910218,-2.308957 6.55827,-3.190308 0.648053,-0.881351 0.04755,-6.879068 1.089884,-7.21118 1.04233,-0.332113 4.022306,4.907444 5.06078,5.251425 1.038474,0.343982 6.557077,-2.080523 7.195033,-1.191836 0.637955,0.888687 -3.424296,5.341924 -3.430536,6.435868 -0.0062,1.093944 4.004944,5.593234 3.356891,6.474585 z"
       inkscape:transform-center-x="-0.71719728"
       inkscape:transform-center-y="-0.30923433"
       transform="rotate(30.279213,-62.771048,32.566548)" />
    <path
       sodipodi:type="star"
       style="fill:#cbcd66;fill-opacity:1;stroke-width:0.264583"
       id="path2-1-2"
       inkscape:flatsided="false"
       sodipodi:sides="5"
       sodipodi:cx="38.514977"
       sodipodi:cy="28.365759"
       sodipodi:r1="10.982466"
       sodipodi:r2="5.4912329"
       sodipodi:arg1="0.63402272"
       sodipodi:arg2="1.2623413"
       inkscape:rounded="0.15"
       inkscape:randomized="0"
       d="m 47.363011,34.871667 c -0.648052,0.881351 -6.138637,-1.605953 -7.180968,-1.273841 -1.04233,0.332113 -4.081886,5.537332 -5.120359,5.19335 -1.038474,-0.343982 -0.369592,-6.334458 -1.007547,-7.223145 -0.637956,-0.888687 -6.527688,-2.170974 -6.521448,-3.264918 0.0062,-1.093944 5.910218,-2.308957 6.55827,-3.190308 0.648053,-0.881351 0.04755,-6.879068 1.089884,-7.21118 1.04233,-0.332113 4.022306,4.907444 5.06078,5.251425 1.038474,0.343982 6.557077,-2.080523 7.195033,-1.191836 0.637955,0.888687 -3.424296,5.341924 -3.430536,6.435868 -0.0062,1.093944 4.004944,5.593234 3.356891,6.474585 z"
       inkscape:transform-center-x="0.87053942"
       inkscape:transform-center-y="0.15086637"
       transform="rotate(69.045022,67.521981,146.04622)" />
    <path
       sodipodi:type="star"
       style="fill:#cbcd66;fill-opacity:1;stroke-width:0.264583"
       id="path2-1-2-1"
       inkscape:flatsided="false"
       sodipodi:sides="5"
       sodipodi:cx="38.514977"
       sodipodi:cy="28.365759"
       sodipodi:r1="10.982466"
       sodipodi:r2="5.4912329"
       sodipodi:arg1="0.63402272"
       sodipodi:arg2="1.2623413"
       inkscape:rounded="0.15"
       inkscape:randomized="0"
       d="m 47.363011,34.871667 c -0.648052,0.881351 -6.138637,-1.605953 -7.180968,-1.273841 -1.04233,0.332113 -4.081886,5.537332 -5.120359,5.19335 -1.038474,-0.343982 -0.369592,-6.334458 -1.007547,-7.223145 -0.637956,-0.888687 -6.527688,-2.170974 -6.521448,-3.264918 0.0062,-1.093944 5.910218,-2.308957 6.55827,-3.190308 0.648053,-0.881351 0.04755,-6.879068 1.089884,-7.21118 1.04233,-0.332113 4.022306,4.907444 5.06078,5.251425 1.038474,0.343982 6.557077,-2.080523 7.195033,-1.191836 0.637955,0.888687 -3.424296,5.341924 -3.430536,6.435868 -0.0062,1.093944 4.004944,5.593234 3.356891,6.474585 z"
       inkscape:transform-center-x="-0.873503"
       inkscape:transform-center-y="-0.1477742"
       transform="rotate(33.098943,99.665442,273.67019)" />
    <path
       sodipodi:type="star"
       style="fill:#cbcd66;fill-opacity:1;stroke-width:0.264583"
       id="path2-1-2-1-2"
       inkscape:flatsided="false"
       sodipodi:sides="5"
       sodipodi:cx="38.514977"
       sodipodi:cy="28.365759"
       sodipodi:r1="10.982466"
       sodipodi:r2="5.4912329"
       sodipodi:arg1="0.63402272"
       sodipodi:arg2="1.2623413"
       inkscape:rounded="0.15"
       inkscape:randomized="0"
       d="m 47.363011,34.871667 c -0.648052,0.881351 -6.138637,-1.605953 -7.180968,-1.273841 -1.04233,0.332113 -4.081886,5.537332 -5.120359,5.19335 -1.038474,-0.343982 -0.369592,-6.334458 -1.007547,-7.223145 -0.637956,-0.888687 -6.527688,-2.170974 -6.521448,-3.264918 0.0062,-1.093944 5.910218,-2.308957 6.55827,-3.190308 0.648053,-0.881351 0.04755,-6.879068 1.089884,-7.21118 1.04233,-0.332113 4.022306,4.907444 5.06078,5.251425 1.038474,0.343982 6.557077,-2.080523 7.195033,-1.191836 0.637955,0.888687 -3.424296,5.341924 -3.430536,6.435868 -0.0062,1.093944 4.004944,5.593234 3.356891,6.474585 z"
       inkscape:transform-center-x="-0.873503"
       inkscape:transform-center-y="-0.1477742"
       transform="rotate(33.098943,-33.933136,322.13062)" />
    <path
       sodipodi:type="star"
       style="fill:#cbcd66;fill-opacity:1;stroke-width:0.264583"
       id="path2-1-2-1-2-0"
       inkscape:flatsided="false"
       sodipodi:sides="5"
       sodipodi:cx="38.514977"
       sodipodi:cy="28.365759"
       sodipodi:r1="10.982466"
       sodipodi:r2="5.4912329"
       sodipodi:arg1="0.63402272"
       sodipodi:arg2="1.2623413"
       inkscape:rounded="0.15"
       inkscape:randomized="0"
       d="m 47.363011,34.871667 c -0.648052,0.881351 -6.138637,-1.605953 -7.180968,-1.273841 -1.04233,0.332113 -4.081886,5.537332 -5.120359,5.19335 -1.038474,-0.343982 -0.369592,-6.334458 -1.007547,-7.223145 -0.637956,-0.888687 -6.527688,-2.170974 -6.521448,-3.264918 0.0062,-1.093944 5.910218,-2.308957 6.55827,-3.190308 0.648053,-0.881351 0.04755,-6.879068 1.089884,-7.21118 1.04233,-0.332113 4.022306,4.907444 5.06078,5.251425 1.038474,0.343982 6.557077,-2.080523 7.195033,-1.191836 0.637955,0.888687 -3.424296,5.341924 -3.430536,6.435868 -0.0062,1.093944 4.004944,5.593234 3.356891,6.474585 z"
       inkscape:transform-center-x="-0.873503"
       inkscape:transform-center-y="-0.1477742"
       transform="rotate(33.098943,-150.66378,348.05625)" />
    <path
       sodipodi:type="star"
       style="fill:#cbcd66;fill-opacity:1;stroke-width:0.264583"
       id="path2-1-9"
       inkscape:flatsided="false"
       sodipodi:sides="5"
       sodipodi:cx="38.514977"
       sodipodi:cy="28.365759"
       sodipodi:r1="10.982466"
       sodipodi:r2="5.4912329"
       sodipodi:arg1="0.63402272"
       sodipodi:arg2="1.2623413"
       inkscape:rounded="0.15"
       inkscape:randomized="0"
       d="m 47.363011,34.871667 c -0.648052,0.881351 -6.138637,-1.605953 -7.180968,-1.273841 -1.04233,0.332113 -4.081886,5.537332 -5.120359,5.19335 -1.038474,-0.343982 -0.369592,-6.334458 -1.007547,-7.223145 -0.637956,-0.888687 -6.527688,-2.170974 -6.521448,-3.264918 0.0062,-1.093944 5.910218,-2.308957 6.55827,-3.190308 0.648053,-0.881351 0.04755,-6.879068 1.089884,-7.21118 1.04233,-0.332113 4.022306,4.907444 5.06078,5.251425 1.038474,0.343982 6.557077,-2.080523 7.195033,-1.191836 0.637955,0.888687 -3.424296,5.341924 -3.430536,6.435868 -0.0062,1.093944 4.004944,5.593234 3.356891,6.474585 z"
       inkscape:transform-center-x="26.488886"
       inkscape:transform-center-y="-57.463452"
       transform="rotate(-5.3871246,1312.8981,113.8134)" />
  </g>
</svg>
